<?xml version="1.0" encoding="UTF-8"?>
<svg width="124px" height="37px" viewBox="0 0 124 37" version="1.1" xmlns="http://www.w3.org/2000/svg" xmlns:xlink="http://www.w3.org/1999/xlink">
    <!-- Generator: Sketch 54.1 (76490) - https://sketchapp.com -->
    <title>App Store</title>
    <desc>Created with Sketch.</desc>
    <g id="Menu---Footer" stroke="none" stroke-width="1" fill="none" fill-rule="evenodd">
        <g id="knet_1140grid_1490px_footer" transform="translate(-1037.000000, -218.000000)">
            <g id="footer">
                <g id="Store-Logoları" transform="translate(1038.000000, 219.000000)">
                    <g id="App-Store">
                        <g id="Group">
                            <path d="M122,31.4915724 C122,33.42991 120.429436,35 118.486849,35 L3.51773295,35 C1.57606165,35 0,33.42991 0,31.4915724 L0,3.51300775 C0,1.57558626 1.57606165,0 3.51773295,0 L118.485932,0 C120.429436,0 121.999084,1.57558626 121.999084,3.51300775 L122,31.4915724 L122,31.4915724 Z" id="Shape" stroke="#A5A5A5" fill="#000000"></path>
                            <g transform="translate(11.029412, 4.514706)" fill="#FFFFFF" id="Shape">
                                <path d="M16.6617647,12.6691176 C16.6351103,9.70680147 19.0873162,8.265625 19.1994485,8.19852941 C17.8106618,6.17371324 15.6580882,5.89705882 14.9016544,5.875 C13.09375,5.68474265 11.3400735,6.95680147 10.4191176,6.95680147 C9.47977941,6.95680147 8.06158088,5.89338235 6.53308824,5.92463235 C4.56617647,5.95496324 2.72610294,7.09375 1.71691176,8.86213235 C-0.365808824,12.4678309 1.1875,17.7665441 3.18290441,20.6810662 C4.18106618,22.1084559 5.34742647,23.7022059 6.87408088,23.6461397 C8.36764706,23.5845588 8.92555147,22.6939338 10.7279412,22.6939338 C12.5137868,22.6939338 13.0376838,23.6461397 14.5946691,23.6102941 C16.1976103,23.5845588 17.2068015,22.1764706 18.1700368,20.7362132 C19.3235294,19.1001838 19.7867647,17.4889706 19.8051471,17.40625 C19.7674632,17.3933824 16.6920956,16.2196691 16.6617647,12.6691176 Z"></path>
                                <path d="M13.7205882,3.95772059 C14.5238971,2.953125 15.0735294,1.58639706 14.9209559,0.199448529 C13.7582721,0.250919118 12.3042279,1.00367647 11.4669118,1.98621324 C10.7261029,2.85202206 10.0643382,4.27113971 10.2352941,5.60569853 C11.5413603,5.703125 12.8823529,4.94669118 13.7205882,3.95772059 Z"></path>
                            </g>
                            <g transform="translate(38.602941, 7.272059)" fill="#FFFFFF" id="Shape">
                                <path d="M7.94485294,9.09283088 L6.49632353,9.09283088 L5.703125,6.59926471 L2.94577206,6.59926471 L2.19025735,9.09283088 L0.779411765,9.09283088 L3.51194853,0.606617647 L5.19852941,0.606617647 L7.94485294,9.09283088 Z M5.46415441,5.55422794 L4.74632353,3.33823529 C4.67095588,3.11121324 4.52849265,2.57904412 4.31801471,1.73897059 L4.29319853,1.73897059 C4.20955882,2.10018382 4.07536765,2.63327206 3.890625,3.33823529 L3.18566176,5.55422794 L5.46415441,5.55422794 Z"></path>
                                <path d="M14.8455882,5.95772059 C14.8455882,6.99908088 14.5643382,7.82077206 14.0018382,8.42555147 C13.4981618,8.96323529 12.8722426,9.23161765 12.125,9.23161765 C11.3198529,9.23161765 10.7398897,8.94301471 10.3869485,8.36305147 L10.3621324,8.36305147 L10.3621324,11.5863971 L9.00275735,11.5863971 L9.00275735,4.98897059 C9.00275735,4.33363971 8.98529412,3.66268382 8.95220588,2.97426471 L10.1479779,2.97426471 L10.2242647,3.94393382 L10.2490809,3.94393382 C10.7022059,3.21415441 11.390625,2.84926471 12.3143382,2.84926471 C13.0367647,2.84926471 13.6378676,3.13511029 14.1213235,3.70588235 C14.6047794,4.27665441 14.8455882,5.02573529 14.8455882,5.95772059 Z M13.4604779,6.00827206 C13.4604779,5.41268382 13.3262868,4.92095588 13.0579044,4.53492647 C12.7637868,4.13235294 12.3694853,3.93014706 11.8740809,3.93014706 C11.5386029,3.93014706 11.2334559,4.04136029 10.9613971,4.26378676 C10.6884191,4.48621324 10.5101103,4.77849265 10.4255515,5.13878676 C10.3841912,5.30698529 10.3630515,5.44485294 10.3630515,5.55422794 L10.3630515,6.57352941 C10.3630515,7.01838235 10.4990809,7.39522059 10.7720588,7.70128676 C11.0450368,8.00735294 11.3998162,8.16084559 11.8363971,8.16084559 C12.3483456,8.16084559 12.7472426,7.96323529 13.0321691,7.56893382 C13.3170956,7.17463235 13.4604779,6.65441176 13.4604779,6.00827206 Z"></path>
                                <path d="M21.9466912,5.95772059 C21.9466912,6.99908088 21.6654412,7.82077206 21.1029412,8.42555147 C20.5992647,8.96323529 19.9733456,9.23161765 19.2261029,9.23161765 C18.4209559,9.23161765 17.8409926,8.94301471 17.4880515,8.36305147 L17.4632353,8.36305147 L17.4632353,11.5863971 L16.1038603,11.5863971 L16.1038603,4.98897059 C16.1038603,4.33363971 16.0863971,3.66268382 16.0533088,2.97426471 L17.2490809,2.97426471 L17.3253676,3.94393382 L17.3501838,3.94393382 C17.8033088,3.21415441 18.4917279,2.84926471 19.4154412,2.84926471 C20.1378676,2.84926471 20.7389706,3.13511029 21.2224265,3.70588235 C21.7058824,4.27665441 21.9466912,5.02573529 21.9466912,5.95772059 Z M20.5615809,6.00827206 C20.5615809,5.41268382 20.4273897,4.92095588 20.1590074,4.53492647 C19.8648897,4.13235294 19.4705882,3.93014706 18.9751838,3.93014706 C18.6397059,3.93014706 18.3345588,4.04136029 18.0625,4.26378676 C17.7895221,4.48621324 17.6112132,4.77849265 17.5266544,5.13878676 C17.4852941,5.30698529 17.4641544,5.44485294 17.4641544,5.55422794 L17.4641544,6.57352941 C17.4641544,7.01838235 17.6001838,7.39522059 17.8731618,7.70128676 C18.1461397,8.00735294 18.5009191,8.16084559 18.9375,8.16084559 C19.4494485,8.16084559 19.8483456,7.96323529 20.1332721,7.56893382 C20.4191176,7.17463235 20.5615809,6.65441176 20.5615809,6.00827206 Z"></path>
                                <path d="M31.1387868,6.71323529 C31.1387868,7.43474265 30.8878676,8.02297794 30.3851103,8.47610294 C29.8318015,8.97150735 29.0625,9.21875 28.0735294,9.21875 C27.1608456,9.21875 26.4273897,9.04319853 25.8731618,8.69025735 L26.1884191,7.55698529 C26.7840074,7.91911765 27.4393382,8.09926471 28.1534926,8.09926471 C28.6663603,8.09926471 29.0652574,7.98345588 29.3511029,7.75183824 C29.6369485,7.52113971 29.7794118,7.21139706 29.7794118,6.82444853 C29.7794118,6.47977941 29.6617647,6.19025735 29.4264706,5.95496324 C29.1911765,5.71966912 28.8005515,5.50091912 28.2564338,5.29871324 C26.7702206,4.74356618 26.0266544,3.93290441 26.0266544,2.86488971 C26.0266544,2.16727941 26.2867647,1.59558824 26.8079044,1.14981618 C27.328125,0.704963235 28.0211397,0.480698529 28.8860294,0.480698529 C29.6580882,0.480698529 30.3005515,0.614889706 30.8125,0.883272059 L30.4733456,1.99172794 C29.9944853,1.73161765 29.453125,1.60110294 28.8483456,1.60110294 C28.3694853,1.60110294 27.9963235,1.71875 27.7270221,1.95404412 C27.5009191,2.16452206 27.3878676,2.42003676 27.3878676,2.72150735 C27.3878676,3.05790441 27.5174632,3.33455882 27.7784926,3.55238971 C28.0045956,3.75459559 28.4154412,3.97242647 29.0119485,4.20772059 C29.7426471,4.50091912 30.2794118,4.84558824 30.6240809,5.23988971 C30.9659926,5.63419118 31.1387868,6.12591912 31.1387868,6.71323529 Z"></path>
                                <path d="M35.5459559,3.99264706 L34.0477941,3.99264706 L34.0477941,6.96415441 C34.0477941,7.71966912 34.3115809,8.09742647 34.8400735,8.09742647 C35.0845588,8.09742647 35.2849265,8.07628676 35.4448529,8.03492647 L35.4825368,9.06709559 C35.2132353,9.16727941 34.8612132,9.21783088 34.4246324,9.21783088 C33.8878676,9.21783088 33.4678309,9.05422794 33.1663603,8.72702206 C32.8639706,8.39981618 32.7132353,7.85018382 32.7132353,7.07720588 L32.7132353,3.99264706 L31.8180147,3.99264706 L31.8180147,2.97334559 L32.7132353,2.97334559 L32.7132353,1.85202206 L34.0477941,1.44944853 L34.0477941,2.97242647 L35.5459559,2.97242647 L35.5459559,3.99264706 Z"></path>
                                <path d="M42.2454044,5.98253676 C42.2454044,6.921875 41.9761029,7.69485294 41.4393382,8.29963235 C40.8768382,8.92095588 40.1295956,9.23161765 39.1985294,9.23161765 C38.2996324,9.23161765 37.5845588,8.93382353 37.0514706,8.33731618 C36.5183824,7.74080882 36.2518382,6.98988971 36.2518382,6.08363971 C36.2518382,5.13511029 36.5266544,4.35845588 37.0762868,3.75459559 C37.6259191,3.14981618 38.3667279,2.84834559 39.2987132,2.84834559 C40.1976103,2.84834559 40.9191176,3.14613971 41.4641544,3.74264706 C41.9852941,4.32077206 42.2454044,5.06801471 42.2454044,5.98253676 Z M40.8354779,6.02665441 C40.8354779,5.46323529 40.7132353,4.97794118 40.4705882,4.57444853 C40.1847426,4.08639706 39.7775735,3.84191176 39.2490809,3.84191176 C38.703125,3.84191176 38.2876838,4.08639706 38.0027574,4.57444853 C37.7591912,4.97794118 37.6378676,5.47150735 37.6378676,6.05147059 C37.6378676,6.61580882 37.7601103,7.10018382 38.0027574,7.50367647 C38.2959559,7.99172794 38.7086397,8.23621324 39.2371324,8.23621324 C39.7573529,8.23621324 40.1645221,7.98713235 40.4586397,7.49080882 C40.7086397,7.07904412 40.8354779,6.59007353 40.8354779,6.02665441 Z"></path>
                                <path d="M46.7784926,4.17003676 C46.6443015,4.14522059 46.5018382,4.13235294 46.3501838,4.13235294 C45.8713235,4.13235294 45.5027574,4.3125 45.2426471,4.67371324 C45.015625,4.99264706 44.9025735,5.39522059 44.9025735,5.88235294 L44.9025735,9.09283088 L43.5431985,9.09283088 L43.5560662,4.89981618 C43.5560662,4.19485294 43.5386029,3.55238971 43.5055147,2.97334559 L44.6893382,2.97334559 L44.7398897,4.14430147 L44.7775735,4.14430147 C44.9200368,3.74172794 45.1461397,3.41819853 45.4568015,3.17371324 C45.7591912,2.95588235 46.0873162,2.84742647 46.4393382,2.84742647 C46.5652574,2.84742647 46.6783088,2.85569853 46.7784926,2.87224265 L46.7784926,4.17003676 Z"></path>
                                <path d="M52.7711397,5.74356618 C52.7711397,5.98805147 52.7545956,6.19301471 52.7205882,6.36121324 L48.6415441,6.36121324 C48.6590074,6.96507353 48.8556985,7.42738971 49.2334559,7.74632353 C49.578125,8.03216912 50.0220588,8.17463235 50.5680147,8.17463235 C51.1727941,8.17463235 51.7224265,8.078125 52.2178309,7.88511029 L52.4319853,8.82904412 C51.8520221,9.08088235 51.1681985,9.20680147 50.3795956,9.20680147 C49.4310662,9.20680147 48.6856618,8.92738971 48.1443015,8.36948529 C47.6029412,7.81158088 47.3318015,7.0625 47.3318015,6.12224265 C47.3318015,5.19852941 47.5836397,4.43106618 48.0873162,3.81801471 C48.6158088,3.16268382 49.3299632,2.83639706 50.2279412,2.83639706 C51.109375,2.83639706 51.7766544,3.16268382 52.2297794,3.81801471 C52.5909926,4.33731618 52.7711397,4.97886029 52.7711397,5.74356618 Z M51.4751838,5.39154412 C51.4834559,4.98897059 51.3952206,4.640625 51.2104779,4.34558824 C50.9751838,3.96783088 50.6148897,3.77941176 50.1268382,3.77941176 C49.6829044,3.77941176 49.3216912,3.96415441 49.0441176,4.33363971 C48.8170956,4.62775735 48.6829044,4.97977941 48.6415441,5.39154412 L51.4751838,5.39154412 Z"></path>
                                <path d="M55.4402574,0.379595588 C55.078125,1.64705882 54.6516544,2.68841912 54.15625,3.50183824 L53.3125,3.59007353 C53.6810662,2.58272059 53.9457721,1.55514706 54.1056985,0.505514706 L55.4402574,0.379595588 Z"></path>
                                <path d="M60.9806985,9.09283088 L59.7729779,9.09283088 L59.7095588,8.11121324 L59.671875,8.11121324 C59.2858456,8.85753676 58.6314338,9.23161765 57.7077206,9.23161765 C56.96875,9.23161765 56.3556985,8.94301471 55.8694853,8.36305147 C55.3823529,7.78400735 55.1387868,7.03308824 55.1387868,6.109375 C55.1387868,5.11948529 55.4034926,4.31709559 55.9319853,3.70496324 C56.4439338,3.13419118 57.0735294,2.84834559 57.8207721,2.84834559 C58.6443015,2.84834559 59.21875,3.125 59.5459559,3.67922794 L59.5707721,3.67922794 L59.5707721,0.165441176 L60.9301471,0.165441176 L60.9301471,7.44301471 C60.9301471,8.03952206 60.9476103,8.58915441 60.9806985,9.09283088 Z M59.5698529,6.51102941 L59.5698529,5.49172794 C59.5698529,5.31525735 59.5569853,5.171875 59.5321691,5.06341912 C59.4558824,4.73621324 59.2913603,4.46139706 59.0395221,4.23897059 C58.7867647,4.01654412 58.4834559,3.90533088 58.1286765,3.90533088 C57.6231618,3.90533088 57.2251838,4.10753676 56.9338235,4.51011029 C56.6433824,4.91268382 56.4972426,5.42922794 56.4972426,6.05882353 C56.4972426,6.66268382 56.6360294,7.15441176 56.9145221,7.53216912 C57.2095588,7.93474265 57.6056985,8.13694853 58.1029412,8.13694853 C58.5496324,8.13694853 58.9080882,7.96875 59.1783088,7.63327206 C59.4402574,7.32169118 59.5698529,6.94852941 59.5698529,6.51102941 Z"></path>
                                <path d="M67.2261029,9.09283088 L66.0055147,9.09283088 L65.9044118,8.38694853 L65.8667279,8.38694853 C65.4476103,8.94944853 64.8520221,9.23069853 64.0790441,9.23069853 C63.5,9.23069853 63.0340074,9.046875 62.6810662,8.67647059 C62.3621324,8.34099265 62.2022059,7.92555147 62.2022059,7.43014706 C62.2022059,6.68382353 62.5147059,6.11213235 63.140625,5.71783088 C63.7665441,5.32352941 64.6461397,5.13051471 65.7784926,5.13878676 L65.7784926,5.02573529 C65.7784926,4.21966912 65.3556985,3.81709559 64.5101103,3.81709559 C63.90625,3.81709559 63.375,3.96783088 62.9145221,4.27022059 L62.6369485,3.37591912 C63.2068015,3.02297794 63.9071691,2.84742647 64.7371324,2.84742647 C66.3373162,2.84742647 67.1378676,3.69117647 67.1378676,5.37867647 L67.1378676,7.63235294 C67.1378676,8.24448529 67.1672794,8.73161765 67.2261029,9.09283088 Z M65.8152574,6.98988971 L65.8152574,6.04595588 C64.3125,6.02113971 63.5615809,6.43198529 63.5615809,7.28033088 C63.5615809,7.59926471 63.6498162,7.83823529 63.8244485,7.99724265 C63.9990809,8.15716912 64.2215074,8.23713235 64.4880515,8.23713235 C64.7886029,8.23713235 65.0661765,8.14246324 65.3207721,7.953125 C65.5753676,7.76470588 65.7316176,7.52297794 65.7904412,7.22977941 C65.8079044,7.16176471 65.8152574,7.08272059 65.8152574,6.98988971 Z"></path>
                                <path d="M74.1259191,9.09283088 L72.7665441,9.09283088 L72.7665441,5.58915441 C72.7665441,4.50827206 72.3556985,3.96783088 71.5321691,3.96783088 C71.1295956,3.96783088 70.8023897,4.11672794 70.5505515,4.41360294 C70.2987132,4.71047794 70.1727941,5.06066176 70.1727941,5.46323529 L70.1727941,9.09283088 L68.8134191,9.09283088 L68.8134191,4.72334559 C68.8134191,4.18658088 68.7959559,3.60202206 68.7628676,2.97334559 L69.9595588,2.97334559 L70.0220588,3.93014706 L70.0597426,3.93014706 C70.21875,3.63327206 70.4540441,3.38602941 70.7647059,3.19117647 C71.1341912,2.96231618 71.5459559,2.84742647 71.9990809,2.84742647 C72.5698529,2.84742647 73.0450368,3.03216912 73.421875,3.40165441 C73.8924632,3.85477941 74.1277574,4.53125 74.1277574,5.42922794 L74.1277574,9.09283088 L74.1259191,9.09283088 Z"></path>
                            </g>
                            <g transform="translate(40.441176, 19.220588)" fill="#FFFFFF" id="Shape">
                                <path d="M1.04503676,1.15165441 C1.04503676,1.29411765 0.998161765,1.41268382 0.907169118,1.50827206 C0.814338235,1.60386029 0.696691176,1.65073529 0.555147059,1.65073529 C0.418198529,1.65073529 0.304227941,1.60110294 0.211397059,1.50459559 C0.118566176,1.40625 0.0735294118,1.28952206 0.0735294118,1.15165441 C0.0735294118,1.015625 0.121323529,0.897977941 0.215992647,0.798713235 C0.311580882,0.702205882 0.426470588,0.652573529 0.563419118,0.652573529 C0.705882353,0.652573529 0.822610294,0.702205882 0.911764706,0.798713235 C1,0.897977941 1.04503676,1.01470588 1.04503676,1.15165441 Z M1.03584559,8.05238971 L0.0735294118,8.05238971 L0.0735294118,2.04319853 L1.03676471,2.04319853 L1.03676471,8.05238971 L1.03584559,8.05238971 Z"></path>
                                <path d="M6.54595588,8.05238971 L5.58272059,8.05238971 L5.58272059,5.57077206 C5.58272059,4.80606618 5.29227941,4.42371324 4.70955882,4.42371324 C4.42371324,4.42371324 4.19301471,4.52941176 4.01378676,4.73988971 C3.83639706,4.95036765 3.74632353,5.19761029 3.74632353,5.48345588 L3.74632353,8.05330882 L2.78308824,8.05330882 L2.78308824,4.95955882 C2.78308824,4.57904412 2.77113971,4.16636029 2.74816176,3.72058824 L3.59466912,3.72058824 L3.63970588,4.39705882 L3.66636029,4.39705882 C3.77849265,4.18658088 3.94577206,4.01286765 4.16544118,3.875 C4.42647059,3.71231618 4.71875,3.63051471 5.03860294,3.63051471 C5.44301471,3.63051471 5.77941176,3.76194853 6.046875,4.02389706 C6.37959559,4.34466912 6.54595588,4.82261029 6.54595588,5.45863971 L6.54595588,8.05238971 L6.54595588,8.05238971 Z"></path>
                                <path d="M12.0909926,8.05238971 L11.2352941,8.05238971 L11.1902574,7.35661765 L11.1636029,7.35661765 C10.890625,7.88602941 10.4264706,8.14981618 9.77297794,8.14981618 C9.25,8.14981618 8.81617647,7.94485294 8.47150735,7.53492647 C8.12683824,7.125 7.95496324,6.59375 7.95496324,5.93933824 C7.95496324,5.23805147 8.14154412,4.67003676 8.515625,4.23621324 C8.87867647,3.83272059 9.32444853,3.62959559 9.85294118,3.62959559 C10.4356618,3.62959559 10.8428309,3.82628676 11.0744485,4.21875 L11.0928309,4.21875 L11.0928309,1.73069853 L12.0560662,1.73069853 L12.0560662,6.88419118 C12.0560662,7.30606618 12.0670956,7.69577206 12.0909926,8.05238971 Z M11.0928309,6.22426471 L11.0928309,5.50183824 C11.0928309,5.37683824 11.0836397,5.27573529 11.0661765,5.19852941 C11.0119485,4.96691176 10.8952206,4.77297794 10.7169118,4.61488971 C10.5376838,4.45680147 10.3226103,4.37775735 10.0726103,4.37775735 C9.71415441,4.37775735 9.43290441,4.52113971 9.22610294,4.80698529 C9.02022059,5.09283088 8.91727941,5.45680147 8.91727941,5.90257353 C8.91727941,6.33088235 9.015625,6.67922794 9.21323529,6.94669118 C9.421875,7.23161765 9.70220588,7.37408088 10.0542279,7.37408088 C10.3704044,7.37408088 10.6240809,7.25551471 10.8152574,7.01746324 C11,6.79779412 11.0928309,6.53308824 11.0928309,6.22426471 Z"></path>
                                <path d="M14.8373162,2.42738971 C14.8373162,2.60018382 14.7803309,2.73897059 14.6681985,2.84558824 C14.5551471,2.953125 14.4099265,3.00643382 14.2306985,3.00643382 C14.0698529,3.00643382 13.9347426,2.95128676 13.8253676,2.84191176 C13.7150735,2.73161765 13.6599265,2.59283088 13.6599265,2.42738971 C13.6599265,2.26011029 13.7169118,2.12408088 13.8299632,2.01654412 C13.9430147,1.91084559 14.0818015,1.85661765 14.2490809,1.85661765 C14.4154412,1.85661765 14.5551471,1.91084559 14.6681985,2.01654412 C14.78125,2.12408088 14.8373162,2.26011029 14.8373162,2.42738971 Z M14.7306985,8.05238971 L13.7674632,8.05238971 L13.7674632,3.71966912 L14.7306985,3.71966912 L14.7306985,8.05238971 Z"></path>
                                <path d="M18.7325368,4.56709559 C18.6369485,4.54871324 18.5367647,4.54044118 18.4292279,4.54044118 C18.0909926,4.54044118 17.8299632,4.66819853 17.6443015,4.92279412 C17.484375,5.14889706 17.4034926,5.43474265 17.4034926,5.77941176 L17.4034926,8.05330882 L16.4402574,8.05330882 L16.4494485,5.08547794 C16.4494485,4.58547794 16.4375,4.13051471 16.4145221,3.72150735 L17.2518382,3.72150735 L17.2876838,4.55055147 L17.3143382,4.55055147 C17.4145221,4.26470588 17.5753676,4.03492647 17.7950368,3.86305147 C18.0091912,3.70863971 18.2408088,3.63143382 18.4908088,3.63143382 C18.5799632,3.63143382 18.6608456,3.63786765 18.7316176,3.64981618 L18.7316176,4.56709559 L18.7325368,4.56709559 Z"></path>
                                <path d="M21.0321691,2.42738971 C21.0321691,2.60018382 20.9751838,2.73897059 20.8630515,2.84558824 C20.75,2.953125 20.6047794,3.00643382 20.4255515,3.00643382 C20.2647059,3.00643382 20.1295956,2.95128676 20.0202206,2.84191176 C19.9099265,2.73161765 19.8547794,2.59283088 19.8547794,2.42738971 C19.8547794,2.26011029 19.9117647,2.12408088 20.0248162,2.01654412 C20.1378676,1.91084559 20.2766544,1.85661765 20.4439338,1.85661765 C20.6102941,1.85661765 20.75,1.91084559 20.8630515,2.01654412 C20.9761029,2.12408088 21.0321691,2.26011029 21.0321691,2.42738971 Z M20.9255515,8.05238971 L19.9623162,8.05238971 L19.9623162,3.71966912 L20.9255515,3.71966912 L20.9255515,8.05238971 Z"></path>
                                <path d="M26.3998162,8.05238971 L25.4356618,8.05238971 L25.4356618,5.57077206 C25.4356618,4.80606618 25.1452206,4.42371324 24.5634191,4.42371324 C24.2775735,4.42371324 24.046875,4.52941176 23.8667279,4.73988971 C23.6893382,4.95036765 23.5992647,5.19761029 23.5992647,5.48345588 L23.5992647,8.05330882 L22.6369485,8.05330882 L22.6369485,4.95955882 C22.6369485,4.57904412 22.625,4.16636029 22.6020221,3.72058824 L23.4485294,3.72058824 L23.4935662,4.39705882 L23.5202206,4.39705882 C23.6314338,4.18658088 23.7987132,4.01286765 24.0193015,3.875 C24.2794118,3.71231618 24.5726103,3.63051471 24.8915441,3.63051471 C25.296875,3.63051471 25.6332721,3.76194853 25.9007353,4.02389706 C26.2325368,4.34466912 26.3998162,4.82261029 26.3998162,5.45863971 L26.3998162,8.05238971 L26.3998162,8.05238971 Z"></path>
                            </g>
                        </g>
                    </g>
                </g>
            </g>
        </g>
    </g>
</svg>